<svg xmlns="http://www.w3.org/2000/svg" viewBox="0 0 30 30" width="30" height="30" fill="none">
	<path d="M 29.295 20.43 h -0.9 l -0.9 -5.22 c -0.045 -0.36 -0.585 -0.36 -0.675 0 l -0.99 6.48 l -0.945 -4.635 c -0.045 -0.315 -0.495 -0.36 -0.63 -0.09 l -1.485 3.33 c -0.63 0 -1.17 -0.135 -1.17 0.36 c 0 0.18 0.135 0.36 0.36 0.36 H 22.95 c 0.135 0 0.27 -0.09 0.315 -0.18 l 1.17 -2.565 l 1.08 5.49 c 0.09 0.36 0.585 0.36 0.675 0 l 0.99 -6.3 l 0.585 3.465 c 0.045 0.18 0.18 0.27 0.315 0.27 H 29.25 c 0.18 0 0.36 -0.135 0.36 -0.36 c 0.045 -0.27 -0.135 -0.405 -0.315 -0.405 z M 22.5 17.28 c 0.09 -0.225 0.135 -0.54 -0.09 -0.9 l -1.125 -2.475 c -0.36 -0.765 -0.405 -1.62 -0.18 -2.43 c 0.225 -0.855 0.315 -1.53 0.225 -1.98 c 0.27 -0.54 0.495 -1.215 0.54 -1.845 v -0.81 c -0.36 -4.05 -5.76 -5.445 -9.765 -5.985 c 0 0 -0.315 -0.045 -0.81 -0.045 c -2.385 0 -8.235 0.63 -10.71 6.705 c 0 0.045 -0.045 0.135 -0.09 0.315 c -1.665 6.255 2.34 11.655 2.34 12.105 c 0.09 0.18 0.18 0.315 0.315 0.405 c 0.18 2.565 0.27 6.75 -0.36 8.01 c -0.045 0.09 -0.045 0.225 0 0.315 c 0.045 0.09 0.18 0.18 0.27 0.18 h 10.17 c 0.135 0 0.27 -0.09 0.315 -0.27 c 0 -0.045 1.17 -4.41 3.87 -3.825 c 0.855 0.18 2.025 0.09 2.52 -0.675 c 0.315 -0.45 0.315 -1.08 0.045 -1.89 c 0.81 -0.45 1.44 -1.17 0.99 -1.935 c 0.585 -0.45 0.495 -1.305 0.18 -2.025 c 0.495 -0.135 1.125 -0.45 1.35 -0.945 z m -11.205 -15.75 h 0.72 c 4.86 0.63 10.575 2.565 8.955 7.155 c -0.27 -0.45 -0.36 -0.765 -0.675 -0.72 c -0.045 0 -0.135 0.045 -0.18 0.09 c -0.045 -0.045 -0.135 -0.09 -0.18 -0.09 c -0.135 0 -0.27 0.045 -0.315 0.18 l -0.54 0.9 c -0.09 -0.315 -0.18 -0.675 -0.45 -0.72 c -0.135 0 -0.27 0.045 -0.315 0.18 l -0.09 0.045 c -0.045 -0.27 -0.045 -0.54 -0.315 -0.585 c -0.36 -0.09 -0.405 0.225 -1.71 2.205 c -1.44 -1.125 -0.945 -1.35 -2.745 1.98 c -1.17 -0.315 -1.665 -0.54 -1.755 -0.09 l -0.45 1.935 c -0.9 -1.935 -0.72 -1.845 -1.575 -1.395 c -0.99 -1.35 -2.34 -1.98 -3.375 -0.675 c -1.215 1.53 -0.315 4.41 0.495 5.625 v 0.045 l -0.27 -0.36 c -0.09 -0.09 -0.225 -0.18 -0.36 -0.135 c -0.135 0.045 -0.225 0.135 -0.27 0.27 l -0.18 0.855 c -0.09 -0.225 -0.135 -0.45 -0.405 -0.405 c -0.045 0 -0.135 0.045 -0.18 0.09 c -0.09 -0.09 -0.225 -0.135 -0.36 -0.135 c -0.36 0.09 -0.27 0.54 -0.27 1.17 c -0.18 -0.135 -0.405 -0.045 -0.495 0.135 c -0.18 -0.18 -0.405 -0.54 -0.63 -0.54 c -0.27 0 -0.315 0.18 -0.36 0.405 c -2.52 -4.455 -2.52 -9 -1.8 -11.205 C 3.555 2.115 9.045 1.53 11.295 1.53 z M 20.7 17.685 c -0.09 0.045 -0.18 0.09 -0.225 0.18 c -0.045 0.09 -0.045 0.18 0 0.315 c 0.27 0.54 0.585 1.44 0 1.62 c -0.27 0.045 -0.36 0.36 -0.18 0.585 c 0.27 0.27 0.225 0.45 0.225 0.495 c -0.09 0.405 -0.765 0.765 -1.035 0.855 c -0.09 0.045 -0.135 0.09 -0.18 0.18 c -0.045 0.09 -0.045 0.18 0 0.27 c 0.315 0.72 0.315 1.26 0.135 1.575 c -0.45 0.63 -1.845 0.36 -1.845 0.36 c -2.295 -0.495 -3.87 1.8 -4.545 4.05 H 3.6 c 0.585 -1.98 0.315 -6.435 0.18 -8.37 c 0.225 0.225 0.405 0.54 0.72 0.36 c 0.09 0.18 0.135 0.315 0.36 0.315 h 0.09 c 0.36 -0.09 0.27 -0.585 0.27 -1.26 h 0.18 l 0.09 0.315 c 0.09 0.315 0.585 0.315 0.63 -0.045 l 0.27 -1.26 c 0.18 0.27 0.315 0.585 0.585 0.54 c 0.135 -0.045 0.225 -0.135 0.27 -0.27 l 0.225 -0.945 c 0 -0.09 0 -0.18 -0.045 -0.27 c -0.765 -1.035 -0.99 -2.565 -1.035 -3.33 c -0.135 -1.485 1.26 -3.33 2.925 -0.72 c 0.09 0.135 0.27 0.18 0.45 0.135 l 0.36 -0.18 l 0.945 2.07 c 0.045 0.135 0.18 0.225 0.36 0.18 c 0.135 0 0.27 -0.135 0.315 -0.27 l 0.585 -2.61 l 1.26 0.315 c 0.135 0.045 0.315 -0.045 0.36 -0.18 l 1.305 -2.43 l 0.81 0.63 c 0.09 0.045 0.18 0.09 0.27 0.045 c 0.09 0 0.18 -0.09 0.225 -0.135 l 1.08 -1.62 c 0.045 0.27 0.045 0.585 0.315 0.63 c 0.135 0.045 0.27 -0.045 0.36 -0.135 l 0.18 -0.315 c 0.09 0.315 0.18 0.675 0.45 0.72 c 0.315 0.045 0.405 -0.27 0.855 -1.035 l 0.045 0.18 c 0.09 0.27 0.495 0.315 0.63 0.045 l 0.18 0.315 c 0.09 0.36 0 0.945 -0.225 1.755 c -0.27 0.945 -0.18 1.98 0.225 2.88 l 1.125 2.475 c 0.09 0.18 0.09 0.27 0.045 0.315 c -0.09 0.315 -0.81 0.585 -1.125 0.675 z" stroke="black" stroke-width="1.5" stroke-miterlimit="10" stroke-linecap="round">
	</path>
</svg>
