<?xml version="1.0" standalone="no"?>
<!DOCTYPE svg PUBLIC "-//W3C//DTD SVG 20010904//EN"
 "http://www.w3.org/TR/2001/REC-SVG-20010904/DTD/svg10.dtd">
<svg version="1.0" xmlns="http://www.w3.org/2000/svg"
 width="512.000000pt" height="512.000000pt" viewBox="0 0 512.000000 512.000000"
 preserveAspectRatio="xMidYMid meet">

<g transform="translate(0.000000,512.000000) scale(0.100000,-0.100000)"
fill="#000000" stroke="none">
<path d="M2360 4549 c-600 -68 -1128 -447 -1392 -999 -49 -103 -110 -286 -132
-395 -94 -476 2 -950 275 -1351 79 -116 118 -154 157 -154 22 0 234 207 1234
1208 1052 1051 1208 1211 1208 1236 0 38 -54 90 -175 170 -344 228 -768 331
-1175 285z m120 -550 l0 -402 -127 7 c-143 8 -337 24 -370 31 -22 5 -22 5 12
86 87 202 218 416 360 587 58 69 83 92 101 92 l24 0 0 -401z m285 309 c110
-133 225 -310 302 -466 l67 -134 -45 -42 c-50 -48 -38 -45 -331 -62 l-118 -7
0 402 0 401 25 0 c18 0 42 -22 100 -92z m-615 0 c-116 -154 -243 -377 -315
-556 l-38 -92 -36 6 c-185 32 -450 91 -463 103 -12 10 121 160 208 235 161
138 345 244 541 311 135 46 143 46 103 -7z m911 11 c116 -38 269 -111 373
-179 l79 -51 -128 -129 -129 -129 -64 122 c-61 117 -153 264 -222 355 -39 51
-33 52 91 11z m-1491 -779 c85 -17 160 -33 167 -35 8 -3 8 -16 -3 -50 -26 -90
-63 -302 -76 -438 l-12 -137 -343 0 -343 0 6 58 c22 225 96 466 195 638 l29
52 113 -29 c61 -16 182 -42 267 -59z m545 -79 c61 -6 167 -13 238 -17 l127 -7
0 -191 0 -191 -87 -87 -88 -88 -249 0 -249 0 7 88 c11 131 33 275 62 392 14
58 28 109 31 114 3 4 26 6 52 2 25 -3 96 -10 156 -15z m745 -19 c0 -4 -49 -57
-110 -117 l-110 -110 0 112 0 112 73 4 c39 1 89 4 110 5 20 1 37 -1 37 -6z
m-1202 -849 c6 -71 19 -170 28 -222 l16 -94 -215 -215 -215 -215 -51 79 c-139
215 -229 474 -255 737 l-6 57 343 0 343 0 12 -127z m337 -23 c-120 -120 -151
-146 -156 -132 -8 20 -29 208 -29 252 l0 30 167 0 168 0 -150 -150z"/>
<path d="M763 4327 c-307 -325 -503 -731 -580 -1202 -26 -164 -24 -506 5 -675
54 -317 163 -603 321 -848 l60 -92 -54 6 c-48 6 -56 4 -79 -19 -33 -33 -34
-79 -3 -110 18 -19 48 -27 184 -47 222 -32 211 -40 238 175 19 153 19 152 -10
180 -49 50 -135 15 -135 -55 0 -16 -4 -30 -9 -30 -15 0 -119 174 -178 297
-231 486 -265 1041 -94 1553 95 284 235 519 459 769 78 88 86 111 51 155 -16
20 -29 26 -59 26 -35 0 -45 -7 -117 -83z"/>
<path d="M4256 4299 l-26 -20 0 -159 0 -159 26 -20 c15 -12 37 -21 49 -21 29
0 75 37 75 60 0 42 21 26 75 -58 157 -241 266 -534 310 -836 19 -128 21 -401
5 -533 -55 -447 -247 -855 -557 -1185 -41 -43 -53 -64 -53 -88 0 -59 67 -98
120 -70 34 18 211 234 292 355 158 237 279 536 334 822 22 112 27 177 31 350
3 127 1 250 -6 310 -40 351 -166 698 -359 988 l-80 120 44 5 c57 8 84 33 84
81 0 29 -6 42 -26 58 -24 19 -40 21 -169 21 -129 0 -145 -2 -169 -21z"/>
<path d="M2618 2742 c-1052 -1051 -1208 -1211 -1208 -1236 0 -38 54 -90 175
-170 302 -201 671 -307 1024 -294 l111 3 0 -218 0 -218 25 -24 c37 -38 79 -33
124 12 20 21 186 200 369 399 205 222 362 384 410 422 43 34 124 108 178 164
573 591 655 1504 197 2196 -79 118 -132 172 -169 172 -25 0 -185 -156 -1236
-1208z m1317 872 c97 -163 158 -323 197 -518 31 -154 31 -443 1 -591 -85 -410
-298 -749 -623 -992 -25 -18 -175 -175 -335 -348 l-290 -315 -5 161 -5 161
-28 24 c-26 22 -34 23 -85 17 -120 -16 -380 -8 -500 16 -207 40 -410 122 -576
232 l-78 52 1118 1118 1119 1119 18 -23 c10 -12 42 -63 72 -113z"/>
<path d="M2495 2146 c-101 -44 -125 -178 -46 -257 65 -65 157 -65 222 0 124
124 -15 327 -176 257z"/>
<path d="M2975 2146 c-101 -44 -125 -178 -46 -257 65 -65 157 -65 222 0 124
124 -15 327 -176 257z"/>
<path d="M3455 2146 c-101 -44 -125 -178 -46 -257 65 -65 157 -65 222 0 124
124 -15 327 -176 257z"/>
</g>
</svg>
